<svg xmlns="http://www.w3.org/2000/svg" viewBox="0 0 512 512" role="img" aria-labelledby="title desc">
  <title id="title">Redlighte Game</title>
  <desc id="desc">Redlighte Game controller icon built from the original Redlighte logo language, with two solid black circles on both sides.</desc>
  <rect width="512" height="512" rx="112" fill="#080808"/>
  <circle cx="256" cy="256" r="164" fill="#ff3045"/>
  <path d="M154 238c0-42 34-76 76-76h52c42 0 76 34 76 76v54c0 31-25 56-56 56h-18c-18 0-34-8-45-22l-17-22-17 22c-11 14-27 22-45 22h-18c-31 0-56-25-56-56v-54Z" fill="#080808"/>
  <circle cx="154" cy="265" r="31" fill="#080808"/>
  <circle cx="358" cy="265" r="31" fill="#080808"/>
  <circle cx="256" cy="256" r="62" fill="#ff3045"/>
  <circle cx="256" cy="256" r="27" fill="#080808"/>
  <path d="M130 254v22M119 265h22" stroke="#ff3045" stroke-width="9" stroke-linecap="round"/>
  <circle cx="385" cy="253" r="8" fill="#ff3045"/>
  <circle cx="401" cy="269" r="8" fill="#ff3045"/>
</svg>
